<?xml version="1.0" encoding="UTF-8"?>
<svg version="1.1" xmlns="http://www.w3.org/2000/svg" width="60" height="60">
<path d="M0 0 C1.32 0 2.64 0 4 0 C5.00508801 1.78881736 6.00392736 3.58114696 7 5.375 C7.556875 6.37273438 8.11375 7.37046875 8.6875 8.3984375 C10 11 10 11 10 13 C17.425 13.99 17.425 13.99 25 15 C25.495 17.475 25.495 17.475 26 20 C25.43410156 20.49371094 24.86820313 20.98742187 24.28515625 21.49609375 C23.18494141 22.45708984 23.18494141 22.45708984 22.0625 23.4375 C21.33160156 24.07558594 20.60070313 24.71367188 19.84765625 25.37109375 C18.87860647 26.22541459 17.91348825 27.08651175 17 28 C17.090916 30.70108504 17.23740766 33.36930311 17.4375 36.0625 C17.51581055 37.20041992 17.51581055 37.20041992 17.59570312 38.36132812 C17.72575835 40.24121722 17.86228038 42.12065685 18 44 C15.32813747 45.03426937 14.30868784 45.13447787 11.6328125 43.96875 C10.80523437 43.4840625 9.97765625 42.999375 9.125 42.5 C5.21680194 40.44096794 5.21680194 40.44096794 0.875 39.9375 C-2.2903889 41.10731764 -5.1562119 42.56084629 -8.0703125 44.2578125 C-10.44423466 45.17085948 -11.64050361 44.8284454 -14 44 C-13.76990234 42.38931641 -13.76990234 42.38931641 -13.53515625 40.74609375 C-12.3490689 32.84157546 -12.3490689 32.84157546 -14.421875 25.4140625 C-16.77895754 23.10568001 -19.05740351 21.47129824 -22 20 C-21.67 18.35 -21.34 16.7 -21 15 C-20.09636719 14.89042969 -19.19273438 14.78085937 -18.26171875 14.66796875 C-17.08222656 14.50941406 -15.90273437 14.35085937 -14.6875 14.1875 C-13.51574219 14.03667969 -12.34398437 13.88585938 -11.13671875 13.73046875 C-7.88266922 12.97267639 -6.89574767 12.65404674 -5 10 C-4.04969568 8.30015988 -3.15596017 6.567809 -2.3125 4.8125 C-1.87550781 3.91144531 -1.43851563 3.01039062 -0.98828125 2.08203125 C-0.66214844 1.39496094 -0.33601563 0.70789062 0 0 Z " fill="#FFA528" transform="translate(28,8)"/>
</svg>
