<?xml version="1.0" encoding="UTF-8"?>
<svg version="1.1" xmlns="http://www.w3.org/2000/svg" width="60" height="60">
<path d="M0 0 C3.25 0.5625 3.25 0.5625 4.6875 2.20703125 C6.41155459 4.97270216 7.94820147 7.66031502 8.984375 10.7578125 C10.18724672 12.88972804 10.18724672 12.88972804 13.21875 13.3203125 C14.96671875 13.50207031 14.96671875 13.50207031 16.75 13.6875 C23.058933 14.371433 23.058933 14.371433 25.25 16.5625 C25.875 19.1875 25.875 19.1875 25.25 22.5625 C23.93508568 23.77323482 22.57422513 24.93472703 21.1875 26.0625 C18.12208785 28.82727628 17.2953729 29.89231989 17.01171875 34.08203125 C17.24895511 36.55898293 17.55736935 39.03042226 17.9453125 41.48828125 C18.25 44.5625 18.25 44.5625 16.25 47.5625 C12.19437977 48.2384367 9.73777004 47.42428692 6.25 45.5 C3.44066299 43.99385354 2.41347182 43.55923056 -0.875 43.625 C-3.83897268 44.5044605 -3.83897268 44.5044605 -6.75 46.125 C-10.08342821 47.72226769 -12.10118422 48.06006579 -15.75 47.5625 C-18.31822139 43.71016791 -17.5824474 42.35711538 -16.875 37.875 C-16.28662444 32.64423465 -16.28662444 32.64423465 -18.45703125 28.07421875 C-19.91417124 26.75998566 -21.40341258 25.48027441 -22.92578125 24.2421875 C-24.75 22.5625 -24.75 22.5625 -25.375 19.1875 C-24.75 16.5625 -24.75 16.5625 -22.75 14.5625 C-20.6694308 14.38145599 -18.58517172 14.24163632 -16.5 14.125 C-12.26048537 13.57161203 -10.39655307 13.32383967 -7.59375 10.0234375 C-6.13042916 7.2474318 -4.8935415 4.48228014 -3.75 1.5625 C-2.75 0.5625 -2.75 0.5625 0 0 Z M-0.75 5.5625 C-1.03230469 6.32175781 -1.31460937 7.08101562 -1.60546875 7.86328125 C-5.15303102 15.88430914 -5.15303102 15.88430914 -10.04296875 17.9609375 C-13.28260365 18.67457572 -16.45103912 19.22477255 -19.75 19.5625 C-18.79270084 20.68838014 -17.83412105 21.8131715 -16.875 22.9375 C-16.07449219 23.87722656 -16.07449219 23.87722656 -15.2578125 24.8359375 C-14.13567993 26.12086651 -12.95628025 27.35621975 -11.75 28.5625 C-11.50756969 33.41110624 -11.79501582 37.7875791 -12.75 42.5625 C-8.63422017 41.27532249 -8.63422017 41.27532249 -4.75 39.4375 C-1.8399618 38.16435829 0.08431142 38.19722824 3.25 38.5625 C5.41671659 39.52862923 7.45982321 40.60187498 9.515625 41.78515625 C10.08796875 42.04167969 10.6603125 42.29820313 11.25 42.5625 C12.24 42.0675 12.24 42.0675 13.25 41.5625 C13.085 40.9025 12.92 40.2425 12.75 39.5625 C11.43136909 31.65071454 11.43136909 31.65071454 12.25 28.5625 C14.61389015 25.52616845 17.30770914 23.03192269 20.25 20.5625 C17.09232401 18.45738267 16.11069059 18.39972646 12.5 18.125 C8.78462978 17.48854566 7.54599932 16.91270386 5.07421875 13.98828125 C3.83861402 11.99033654 2.65353826 9.96003592 1.52734375 7.8984375 C0.89505859 6.74214844 0.89505859 6.74214844 0.25 5.5625 C-0.08 5.5625 -0.41 5.5625 -0.75 5.5625 Z " fill="#222728" transform="translate(29.75,6.4375)"/>
</svg>
