<?xml version="1.0" encoding="UTF-8"?>
<svg version="1.1" xmlns="http://www.w3.org/2000/svg" width="60" height="60">
<path d="M0 0 C0.87100342 -0.00945648 1.74200684 -0.01891296 2.6394043 -0.02865601 C3.57695557 -0.02258331 4.51450684 -0.01651062 5.48046875 -0.01025391 C6.44573486 -0.01312408 7.41100098 -0.01599426 8.40551758 -0.01895142 C10.44645779 -0.02099302 12.48741752 -0.01545648 14.52832031 -0.00292969 C17.65604315 0.01312239 20.78247371 -0.00277536 23.91015625 -0.02197266 C25.89192994 -0.01999024 27.87370283 -0.0161466 29.85546875 -0.01025391 C30.79302002 -0.0163266 31.73057129 -0.02239929 32.6965332 -0.02865601 C33.56753662 -0.01919952 34.43854004 -0.00974304 35.3359375 0 C36.10188232 0.00238678 36.86782715 0.00477356 37.65698242 0.00723267 C40.22880586 0.4944257 41.11472059 1.30773744 42.66796875 3.38818359 C43.0402832 6.61865234 43.0402832 6.61865234 43.03125 10.57568359 C43.03199776 11.62405396 43.03199776 11.62405396 43.03276062 12.69360352 C43.03042267 14.16962531 43.0207104 15.64565128 43.00415039 17.12158203 C42.98055339 19.38008292 42.98359145 21.63740321 42.99023438 23.89599609 C42.94719643 34.96934207 42.94719643 34.96934207 40.66796875 38.38818359 C37.76890173 39.35453927 35.7949998 39.53796609 32.7734375 39.59912109 C31.81759766 39.62748047 30.86175781 39.65583984 29.87695312 39.68505859 C27.87452894 39.73683427 25.87189829 39.78119535 23.86914062 39.81787109 C18.32069078 39.99673314 14.556891 40.52173929 9.66796875 43.38818359 C6.29296875 43.57568359 6.29296875 43.57568359 3.66796875 43.38818359 C3.33796875 42.06818359 3.00796875 40.74818359 2.66796875 39.38818359 C1.38921875 39.26443359 0.11046875 39.14068359 -1.20703125 39.01318359 C-5.08203125 38.63818359 -5.08203125 38.63818359 -7.33203125 36.38818359 C-7.54378845 33.91429485 -7.63602596 31.55507235 -7.6328125 29.07958984 C-7.63709763 28.35706528 -7.64138275 27.63454071 -7.64579773 26.89012146 C-7.65154362 25.36108448 -7.65203937 23.83202015 -7.64770508 22.30297852 C-7.64454796 19.96306686 -7.66798883 17.62442293 -7.69335938 15.28466797 C-7.69563264 13.79964352 -7.69633574 12.31461568 -7.6953125 10.82958984 C-7.70452225 10.12951309 -7.71373199 9.42943634 -7.72322083 8.70814514 C-7.67697092 3.85205465 -7.67697092 3.85205465 -6.07951355 1.70381165 C-3.89457258 0.05883382 -2.71660171 0.00846527 0 0 Z M-3.33203125 5.38818359 C-3.43196657 7.4487367 -3.46284031 9.51270949 -3.46484375 11.57568359 C-3.46613281 12.83123047 -3.46742187 14.08677734 -3.46875 15.38037109 C-3.46665527 16.0374707 -3.46456055 16.69457031 -3.46240234 17.37158203 C-3.45705359 19.37979694 -3.46234816 21.38778818 -3.46875 23.39599609 C-3.46746094 24.65154297 -3.46617188 25.90708984 -3.46484375 27.20068359 C-3.46371582 28.36212891 -3.46258789 29.52357422 -3.46142578 30.72021484 C-3.63540599 33.30881643 -3.63540599 33.30881643 -2.33203125 34.38818359 C-1.19765625 34.51193359 -0.06328125 34.63568359 1.10546875 34.76318359 C2.86890625 35.07255859 2.86890625 35.07255859 4.66796875 35.38818359 C5.32796875 36.37818359 5.98796875 37.36818359 6.66796875 38.38818359 C10.74761156 37.08663353 10.74761156 37.08663353 14.66796875 35.38818359 C16.39523797 35.24728578 18.12725507 35.16235671 19.859375 35.10693359 C21.39948242 35.05085938 21.39948242 35.05085938 22.97070312 34.99365234 C25.14778238 34.92321359 27.32486573 34.85290154 29.50195312 34.78271484 C31.04012695 34.72664063 31.04012695 34.72664063 32.609375 34.66943359 C33.55498291 34.63914062 34.50059082 34.60884766 35.47485352 34.57763672 C37.64337275 34.6273216 37.64337275 34.6273216 38.66796875 33.38818359 C38.76790407 31.32763049 38.79877781 29.2636577 38.80078125 27.20068359 C38.80207031 25.94513672 38.80335937 24.68958984 38.8046875 23.39599609 C38.80259277 22.73889648 38.80049805 22.08179687 38.79833984 21.40478516 C38.79299109 19.39657025 38.79828566 17.388579 38.8046875 15.38037109 C38.80339844 14.12482422 38.80210938 12.86927734 38.80078125 11.57568359 C38.79908936 9.83351563 38.79908936 9.83351563 38.79736328 8.05615234 C38.97134349 5.46755076 38.97134349 5.46755076 37.66796875 4.38818359 C34.72261305 4.28708006 31.80119315 4.2484908 28.85546875 4.25537109 C27.97141357 4.25441437 27.0873584 4.25345764 26.17651367 4.25247192 C24.30354746 4.25179008 22.43057889 4.25364466 20.55761719 4.2578125 C17.68028487 4.2631607 14.80310867 4.25786766 11.92578125 4.25146484 C10.11067674 4.25212562 8.29557232 4.25340679 6.48046875 4.25537109 C5.1804895 4.25233475 5.1804895 4.25233475 3.85424805 4.24923706 C-0.05206344 3.87557946 -0.05206344 3.87557946 -3.33203125 5.38818359 Z " fill="#222728" transform="translate(11.33203125,9.61181640625)"/>
<path d="M0 0 C8.58 0 17.16 0 26 0 C26 1.32 26 2.64 26 4 C17.42 4 8.84 4 0 4 C0 2.68 0 1.36 0 0 Z " fill="#222729" transform="translate(17,28)"/>
</svg>
