<?xml version="1.0" encoding="UTF-8"?>
<svg version="1.1" xmlns="http://www.w3.org/2000/svg" width="60" height="60">
<path d="M0 0 C2.8941757 1.31218983 3.55991375 2.9625897 4.84375 5.8359375 C5.35976728 8.51525798 5.61265103 11.10896963 5.84375 13.8359375 C6.50375 12.1859375 7.16375 10.5359375 7.84375 8.8359375 C14.05704723 13.63634797 17.53324832 17.65865015 18.71875 25.6484375 C19.14443993 31.81168731 18.05662041 36.82900278 14.36328125 41.84765625 C9.60125441 47.04556656 4.92031741 49.39582226 -2.05078125 50.1484375 C-8.61448414 50.41263686 -13.79769455 49.80955229 -19.15625 45.8359375 C-22.92457293 42.06761457 -25.10067455 38.15811453 -25.19140625 32.734375 C-24.21357362 18.85392154 -13.79317045 10.1365095 -4.19921875 1.13671875 C-2.15625 -0.1640625 -2.15625 -0.1640625 0 0 Z M-2.15625 6.8359375 C-13.95826821 16.49236611 -13.95826821 16.49236611 -20.15625 29.9609375 C-20.15625 34.29433983 -19.58343081 36.27607231 -17.15625 39.8359375 C-11.94746945 44.53654434 -8.78225864 45.14152563 -1.91015625 45.04296875 C3.43223582 44.64134211 6.54049929 42.38357621 10.15625 38.6484375 C13.14952036 34.89897253 14.26153388 31.63136989 13.84375 26.8359375 C13.12115244 23.90483755 12.15189962 21.59758669 10.84375 18.8359375 C10.18375 18.5059375 9.52375 18.1759375 8.84375 17.8359375 C8.286875 18.5165625 7.73 19.1971875 7.15625 19.8984375 C6.393125 20.5378125 5.63 21.1771875 4.84375 21.8359375 C2.36875 21.3409375 2.36875 21.3409375 -0.15625 20.8359375 C-0.15625 16.5459375 -0.15625 12.2559375 -0.15625 7.8359375 C-0.81625 7.5059375 -1.47625 7.1759375 -2.15625 6.8359375 Z " fill="#212527" transform="translate(32.15625,3.1640625)"/>
</svg>
