<?xml version="1.0" encoding="UTF-8"?>
<svg version="1.1" xmlns="http://www.w3.org/2000/svg" width="60" height="60">
<path d="M0 0 C2.8941757 1.31218983 3.55991375 2.9625897 4.84375 5.8359375 C5.35976728 8.51525798 5.61265103 11.10896963 5.84375 13.8359375 C6.50375 12.1859375 7.16375 10.5359375 7.84375 8.8359375 C14.05704723 13.63634797 17.53324832 17.65865015 18.71875 25.6484375 C19.14443993 31.81168731 18.05662041 36.82900278 14.36328125 41.84765625 C9.60125441 47.04556656 4.92031741 49.39582226 -2.05078125 50.1484375 C-8.61448414 50.41263686 -13.79769455 49.80955229 -19.15625 45.8359375 C-22.92457293 42.06761457 -25.10067455 38.15811453 -25.19140625 32.734375 C-24.21357362 18.85392154 -13.79317045 10.1365095 -4.19921875 1.13671875 C-2.15625 -0.1640625 -2.15625 -0.1640625 0 0 Z " fill="#EB3749" transform="translate(32.15625,3.1640625)"/>
</svg>
