<?xml version="1.0" encoding="UTF-8"?>
<svg version="1.1" xmlns="http://www.w3.org/2000/svg" width="32" height="32">
<path d="M0 0 C5.57894737 3.15789474 5.57894737 3.15789474 7 6 C7.63003868 11.22032048 7.39557795 14.04288022 4.3125 18.375 C1.86185211 21.34371834 -0.15119568 23.09439898 -4 24 C-12.35866983 17.49881235 -12.35866983 17.49881235 -13.3515625 12.08203125 C-13.64956454 7.90216048 -13.34968682 6.43250738 -10.625 3.0625 C-6.82632518 0.07782692 -4.84227641 -0.4656035 0 0 Z M-7.75 4.625 C-10.20239838 6.820644 -10.20239838 6.820644 -10.6875 9.8125 C-9.71887216 14.30341089 -7.18060672 16.8004611 -4 20 C-0.24032914 18.262337 1.74176677 16.54865222 4 13 C4.75015195 9.95691709 4.75015195 9.95691709 4 7 C1.85329312 4.51591299 1.85329312 4.51591299 -1 3 C-4.95842116 2.66084713 -4.95842116 2.66084713 -7.75 4.625 Z " fill="#5C6164" transform="translate(19,1)"/>
<path d="M0 0 C0.5625 1.9375 0.5625 1.9375 1 4 C0.67 4.33 0.34 4.66 0 5 C3.49046605 6.16348868 6.32277017 6.16834776 10 6.1875 C11.85625 6.20876953 11.85625 6.20876953 13.75 6.23046875 C17.14759425 6.25871019 17.14759425 6.25871019 20 4 C19.67 2.68 19.34 1.36 19 0 C21.4375 0.75 21.4375 0.75 24 2 C24.8125 4.125 24.8125 4.125 25 6 C20.16839847 9.83195983 16.21187788 10.20630551 10.1875 10.25 C9.48818359 10.270625 8.78886719 10.29125 8.06835938 10.3125 C3.29051166 10.34825564 0.03235052 9.57054603 -4 7 C-4.875 4.8125 -4.875 4.8125 -5 3 C-3.35 2.01 -1.7 1.02 0 0 Z " fill="#5C6164" transform="translate(6,20)"/>
<path d="M0 0 C3.0625 0.1875 3.0625 0.1875 5.0625 2.1875 C4.49431818 7.75568182 4.49431818 7.75568182 3.0625 9.1875 C0.125 9.4375 0.125 9.4375 -2.9375 9.1875 C-4.9375 6.1875 -4.9375 6.1875 -4.625 3.5625 C-3.63731654 0.1505026 -3.65603948 0.23336422 0 0 Z M-1.9375 3.1875 C-1.6075 4.1775 -1.2775 5.1675 -0.9375 6.1875 C0.0525 5.8575 1.0425 5.5275 2.0625 5.1875 C2.0625 4.5275 2.0625 3.8675 2.0625 3.1875 C0.7425 3.1875 -0.5775 3.1875 -1.9375 3.1875 Z " fill="#5D6164" transform="translate(15.9375,6.8125)"/>
</svg>
