<?xml version="1.0" encoding="UTF-8"?>
<svg version="1.1" xmlns="http://www.w3.org/2000/svg" width="49" height="48">
<path d="M0 0 C3.82573189 3.12449565 5.73006894 6.17223055 6.47265625 11.13671875 C6.85874921 17.60130088 5.36808271 21.92296424 1.125 26.8125 C-2.92120907 30.29673559 -7.65398155 30.94324337 -12.875 30.8125 C-17.34417728 29.98902011 -20.69501506 28.39442772 -23.75 25 C-27.18437053 19.8484442 -28.41943226 15.84448278 -27.41015625 9.765625 C-26.13564567 5.11412653 -23.61920541 2.38615834 -19.875 -0.5 C-13.41543694 -4.13350422 -6.29487843 -4.15649085 0 0 Z M-22.25 7.5625 C-23.69899408 12.77887867 -23.57553657 16.46146519 -21.125 21.1875 C-18.54572126 24.19665853 -16.64605688 25.47203805 -12.76171875 26.21875 C-8.38719715 26.40523049 -5.44611514 26.03308777 -1.875 23.375 C1.30371326 20.24074427 2.23471228 17.41276834 2.3984375 12.9921875 C1.84839786 8.60758579 -0.72567771 6.08952476 -3.5625 2.9375 C-10.44045237 -0.40853088 -17.5647202 1.59941662 -22.25 7.5625 Z " fill="#EC384A" transform="translate(35.875,10.1875)"/>
<path d="M0 0 C1.65 0.33 3.3 0.66 5 1 C5 2.98 5 4.96 5 7 C7.31 7 9.62 7 12 7 C12 8.32 12 9.64 12 11 C9.69 11 7.38 11 5 11 C5 12.98 5 14.96 5 17 C3.35 17.33 1.7 17.66 0 18 C0 15.69 0 13.38 0 11 C-2.31 11 -4.62 11 -7 11 C-7 9.68 -7 8.36 -7 7 C-4.69 7 -2.38 7 0 7 C0 4.69 0 2.38 0 0 Z " fill="#EA354A" transform="translate(23,15)"/>
</svg>
