<?xml version="1.0" encoding="UTF-8"?>
<svg version="1.1" xmlns="http://www.w3.org/2000/svg" width="32" height="32">
<path d="M0 0 C0.99 0.66 1.98 1.32 3 2 C4.32 1.67 5.64 1.34 7 1 C7 4.63 7 8.26 7 12 C6.01 12 5.02 12 4 12 C3.5875 11.071875 3.175 10.14375 2.75 9.1875 C1.02169123 6.03950903 0.15151576 4.62077953 -3 3 C-7.10281481 2.58134543 -8.51131349 2.67420899 -12 5 C-12.99 5 -13.98 5 -15 5 C-15 4.01 -15 3.02 -15 2 C-9.84493014 -1.30453196 -5.791309 -1.46713161 0 0 Z " fill="#202627" transform="translate(22,4)"/>
<path d="M0 0 C0.99 0 1.98 0 3 0 C3.4125 0.928125 3.825 1.85625 4.25 2.8125 C5.97830877 5.96049097 6.84848424 7.37922047 10 9 C14.22194982 9.4491436 17.17773189 8.7987144 21 7 C21.33 7.99 21.66 8.98 22 10 C17.37176457 12.96681758 14.30213627 13.19975858 9.05078125 12.51953125 C7 12 7 12 4 10 C2.68 10.33 1.36 10.66 0 11 C0 7.37 0 3.74 0 0 Z " fill="#202628" transform="translate(3,16)"/>
</svg>
