<?xml version="1.0" encoding="UTF-8"?>
<svg version="1.1" xmlns="http://www.w3.org/2000/svg" width="90" height="32">
<path d="M0 0 C29.7 0 59.4 0 90 0 C90 10.56 90 21.12 90 32 C60.3 32 30.6 32 0 32 C0 21.44 0 10.88 0 0 Z " fill="#ED394F" transform="translate(0,0)"/>
<path d="M0 0 C5.61 0 11.22 0 17 0 C16.125 9.875 16.125 9.875 15 11 C13.14712498 11.07226502 11.29166122 11.0838122 9.4375 11.0625 C8.42558594 11.05347656 7.41367187 11.04445313 6.37109375 11.03515625 C5.19740234 11.01775391 5.19740234 11.01775391 4 11 C4 12.65 4 14.3 4 16 C2.35 16 0.7 16 -1 16 C-1.02741912 14.4584364 -1.04658248 12.91672526 -1.0625 11.375 C-1.07410156 10.51648437 -1.08570313 9.65796875 -1.09765625 8.7734375 C-1 6 -1 6 0 0 Z " fill="#FDEDEE" transform="translate(41,8)"/>
<path d="M0 0 C5.28 0 10.56 0 16 0 C16 1.65 16 3.3 16 5 C14.02 5 12.04 5 10 5 C10 4.34 10 3.68 10 3 C8.35 3 6.7 3 5 3 C5 4.32 5 5.64 5 7 C8.3 7 11.6 7 15 7 C14.67 9.97 14.34 12.94 14 16 C9.05 16 4.1 16 -1 16 C-1 15.01 -1 14.02 -1 13 C2.3 13 5.6 13 9 13 C9 12.01 9 11.02 9 10 C5.7 10 2.4 10 -1 10 C-0.67 6.7 -0.34 3.4 0 0 Z " fill="#FCE2E5" transform="translate(61,8)"/>
<path d="M0 0 C5.61 0 11.22 0 17 0 C17 0.66 17 1.32 17 2 C15.02 2 13.04 2 11 2 C10.67 6.29 10.34 10.58 10 15 C8.35 15 6.7 15 5 15 C4.9727585 13.58344207 4.95349533 12.16672955 4.9375 10.75 C4.92589844 9.96109375 4.91429687 9.1721875 4.90234375 8.359375 C4.99614694 6.09308998 5.36758937 4.1711105 6 2 C4.02 2 2.04 2 0 2 C0 1.34 0 0.68 0 0 Z " fill="#FEF8F9" transform="translate(11,9)"/>
<path d="M0 0 C1.98 0 3.96 0 6 0 C5.34 5.28 4.68 10.56 4 16 C2.35 16 0.7 16 -1 16 C-0.67 10.72 -0.34 5.44 0 0 Z " fill="#FDF1F2" transform="translate(32,8)"/>
<path d="M0 0 C3.3 0 6.6 0 10 0 C9.67 2.64 9.34 5.28 9 8 C4.05 8 -0.9 8 -6 8 C-6 7.01 -6 6.02 -6 5 C-2.37 5 1.26 5 5 5 C5 3.68 5 2.36 5 1 C3.35 1 1.7 1 0 1 C0 0.67 0 0.34 0 0 Z " fill="#FEFAFB" transform="translate(66,16)"/>
<path d="M0 0 C1.23051636 3.59622738 0.79495922 6.35936924 0.125 10.0625 C-0.05804688 11.10535156 -0.24109375 12.14820313 -0.4296875 13.22265625 C-1 16 -1 16 -2 19 C-10.25 19 -18.5 19 -27 19 C-27 18.67 -27 18.34 -27 18 C-19.41 17.67 -11.82 17.34 -4 17 C-3.34 13.7 -2.68 10.4 -2 7 C-1.36149212 4.65880445 -0.70656285 2.32156366 0 0 Z " fill="#FBADBA" transform="translate(86,11)"/>
<path d="M0 0 C0.33 0 0.66 0 1 0 C1 7.92 1 15.84 1 24 C0.01 24 -0.98 24 -2 24 C-1.03644647 7.1070615 -1.03644647 7.1070615 0 0 Z " fill="#000000" transform="translate(89,8)"/>
<path d="M0 0 C0.99 0 1.98 0 3 0 C2.03644647 16.8929385 2.03644647 16.8929385 1 24 C0.67 24 0.34 24 0 24 C0 16.08 0 8.16 0 0 Z " fill="#000000" transform="translate(0,0)"/>
<path d="M0 0 C1.98 0 3.96 0 6 0 C6 1.65 6 3.3 6 5 C4.02 5 2.04 5 0 5 C0 3.35 0 1.7 0 0 Z " fill="#ED4858" transform="translate(46,11)"/>
<path d="M0 0 C1.65 0 3.3 0 5 0 C5 0.66 5 1.32 5 2 C6.98 2 8.96 2 11 2 C11 2.33 11 2.66 11 3 C7.37 3.33 3.74 3.66 0 4 C0 2.68 0 1.36 0 0 Z " fill="#EE4256" transform="translate(66,11)"/>
</svg>
