<?xml version="1.0" encoding="UTF-8"?>
<svg version="1.1" xmlns="http://www.w3.org/2000/svg" width="48" height="48">
<path d="M0 0 C3.98561154 2.62688033 6.23980531 5.28191592 7.75 9.8125 C8.67157627 17.31676394 6.26270542 21.86483343 1.75 27.8125 C-0.38214026 30.2111578 -2.44210758 32.23347344 -5.25 33.8125 C-8.54755456 33.96952641 -9.90219433 33.02653426 -12.6875 31.3125 C-17.42456014 26.69097791 -22.05241373 20.77629398 -22.5 14.0625 C-22.43334393 9.97426096 -21.5323059 7.27530894 -19.25 3.8125 C-13.48694118 -1.51832941 -7.3462207 -2.68419603 0 0 Z M-16.25 6.8125 C-18.60242347 10.02035018 -18.7184209 12.90899252 -18.25 16.8125 C-15.88012502 21.11338423 -12.99303267 24.63092223 -9.25 27.8125 C-5.21110935 28.24426561 -5.21110935 28.24426561 -2.75 25.6875 C1.97295822 20.38337115 1.97295822 20.38337115 4.25 13.8125 C3.50322634 9.33185804 1.55703137 6.13765634 -2.125 3.4375 C-8.05785337 1.69254313 -11.52149491 2.94372311 -16.25 6.8125 Z " fill="#FFFFFF" transform="translate(31.25,3.1875)"/>
<path d="M0 0 C0.33 1.32 0.66 2.64 1 4 C0.01 4.33 -0.98 4.66 -2 5 C-2 5.66 -2 6.32 -2 7 C7.96835709 10.3227857 20.03164291 10.3227857 30 7 C30 6.34 30 5.68 30 5 C29.01 4.67 28.02 4.34 27 4 C27.33 2.68 27.66 1.36 28 0 C30.67857172 0.36196915 32.60980914 0.73987276 34.875 2.25 C36 4 36 4 35.9375 6.5 C34.74727358 9.67393712 34.00915181 10.4201953 31 12 C21.03798071 15.15463944 6.8854782 15.96290095 -3 12 C-6.0625 9.875 -6.0625 9.875 -8 8 C-7.6641593 4.89347355 -7.40950721 3.39585697 -5.125 1.1875 C-3 0 -3 0 0 0 Z " fill="#FFFFFF" transform="translate(10,31)"/>
<path d="M0 0 C2.375 1.625 2.375 1.625 4 4 C4.61195145 7.6717087 4.48706506 9.28813568 2.375 12.375 C-0.71186432 14.48706506 -2.3282913 14.61195145 -6 14 C-8.375 12.375 -8.375 12.375 -10 10 C-10.61195145 6.3282913 -10.48706506 4.71186432 -8.375 1.625 C-5.28813568 -0.48706506 -3.6717087 -0.61195145 0 0 Z M-4 4 C-4.66 5.32 -5.32 6.64 -6 8 C-4.02 8.99 -4.02 8.99 -2 10 C-1.34 8.68 -0.68 7.36 0 6 C-1.32 5.34 -2.64 4.68 -4 4 Z " fill="#FFFFFF" transform="translate(27,10)"/>
</svg>
