<svg width="213" height="25" viewBox="0 0 213 25" fill="none" xmlns="http://www.w3.org/2000/svg">
<g id="Group 2668">
<path id="INFORMATION" d="M9.10583 6.472L6.66983 22.32H1.57383L3.44983 7.536L2.63783 6.472H9.10583ZM19.3018 6.472L24.9298 16.412L26.2738 6.472H30.8658L28.7098 22.32H23.3338L17.9578 12.632L16.6138 22.32H11.7698L13.9258 7.536L12.8338 6.472H19.3018ZM50.5907 6.472L50.3387 9.16H40.6507L40.1187 13.724H48.9947L48.7147 16.412H39.5867L38.7747 22.32H33.3987L35.5547 7.536L34.7427 6.472H50.5907ZM69.9728 6.472C70.2341 6.472 70.4768 6.51867 70.7008 6.612C70.9248 6.70533 71.1115 6.836 71.2608 7.004C71.4288 7.172 71.5408 7.368 71.5968 7.592C71.6528 7.816 71.6435 8.068 71.5688 8.348L69.6928 22.32H54.6288C54.3675 22.32 54.1248 22.2733 53.9008 22.18C53.6768 22.0867 53.4808 21.956 53.3128 21.788C53.1635 21.62 53.0608 21.424 53.0048 21.2C52.9488 20.9573 52.9581 20.7053 53.0328 20.444L54.9088 6.472H69.9728ZM59.7528 9.16L58.4088 19.632H64.5968L66.1928 9.16H59.7528ZM92.6769 6.472L91.6129 14.536C91.6129 14.7973 91.5475 15.0493 91.4169 15.292C91.3049 15.516 91.1462 15.712 90.9409 15.88C90.7355 16.048 90.5022 16.1787 90.2409 16.272C89.9982 16.3653 89.7369 16.412 89.4569 16.412H85.9569L91.6129 22.32H85.7049L80.3289 16.412L79.5169 22.32H74.1409L76.0169 7.536L75.2049 6.472H92.6769ZM81.1409 9.16L80.5809 13.724H86.5169L87.0489 9.16H81.1409ZM103.26 6.472L106.228 16.412L111.856 6.472H117.512L115.356 22.32H110.512L111.856 13.976L107.572 21.256H103.26L101.104 14.256L100.04 22.32H95.1955L97.3515 7.536L96.2595 6.472H103.26ZM136.376 6.472L138.504 22.32H133.688L133.128 18.008H126.408L124.532 22.32H119.968L126.156 7.256L125.344 6.472H136.376ZM130.188 9.16L127.5 15.32H132.876L132.064 9.16H130.188ZM145.001 22.32L146.877 9.16H140.969L141.249 6.472H158.441L157.909 9.16H152.253L150.377 22.32H145.001ZM168.629 6.472L166.193 22.32H161.097L162.973 7.536L162.161 6.472H168.629ZM188.289 6.472C188.551 6.472 188.793 6.51867 189.017 6.612C189.241 6.70533 189.428 6.836 189.577 7.004C189.745 7.172 189.857 7.368 189.913 7.592C189.969 7.816 189.96 8.068 189.885 8.348L188.009 22.32H172.945C172.684 22.32 172.441 22.2733 172.217 22.18C171.993 22.0867 171.797 21.956 171.629 21.788C171.48 21.62 171.377 21.424 171.321 21.2C171.265 20.9573 171.275 20.7053 171.349 20.444L173.225 6.472H188.289ZM178.069 9.16L176.725 19.632H182.913L184.509 9.16H178.069ZM199.989 6.472L205.617 16.412L206.961 6.472H211.553L209.397 22.32H204.021L198.645 12.632L197.301 22.32H192.457L194.613 7.536L193.521 6.472H199.989Z" fill="url(#paint0_linear_2216_30113)" fill-opacity="0.29"/>
<path id="&#229;&#159;&#186;&#231;&#161;&#128;&#228;&#191;&#161;&#230;&#129;&#175;" d="M66.4758 9.448L67.0518 5.344H64.7718L65.1078 3.064H67.3638L67.4118 2.848L66.6198 1.936H71.6358L71.4678 3.064H76.9398L76.9878 2.848L76.1958 1.936H81.2118L81.0438 3.064H83.3478L83.0118 5.344H80.7318L80.1558 9.448H82.8918L82.5798 11.728H80.2758L82.4598 15.856H77.8998L77.6358 15.376H74.7558L74.6118 16.528H81.9078L81.5958 18.808H62.4438L62.7558 16.528H70.0518L70.1958 15.376H67.3398L66.9558 15.856H62.3958L65.6838 11.728H63.4277L63.7398 9.448H66.4758ZM75.2118 12.184L75.0677 13.096H76.4358L75.7158 11.728H70.2438L69.1638 13.096H70.5078L70.6518 12.184H75.2118ZM70.5798 9.448H76.0518L76.1238 8.992H70.6518L70.5798 9.448ZM71.0838 5.8H76.5558L76.6278 5.344H71.1558L71.0838 5.8ZM70.8438 7.624H76.3158L76.3638 7.168H70.8918L70.8438 7.624ZM94.7699 3.784L94.3859 3.088H97.6979L96.9779 8.296H97.7939L98.5619 2.896L98.0099 1.984H102.066L101.178 8.296H102.042L102.666 3.76L102.138 3.088H105.402L104.37 10.384H100.89L100.002 16.6H101.13L101.802 11.872H104.586L103.602 18.88H92.3699L93.3539 11.872H96.3539L95.6819 16.6H96.6179L97.5059 10.384H93.8339L94.7699 3.784ZM94.0979 2.44L93.7379 4.936H91.0979L89.9219 7.96H93.2819L91.7699 18.736H84.8099L85.6499 12.664H84.4979L87.4739 4.936H85.9859L86.3459 2.44H94.0979ZM89.1299 16.552L89.9939 10.432H89.0339L88.1699 16.552H89.1299ZM125.776 12.64L124.912 18.808H112.144L113.008 12.64H125.776ZM113.008 4.672L110.944 19.216H106.6L108.544 5.56L107.128 5.824L107.512 3.088L113.392 1.936L113.008 4.672ZM118.336 3.76L118.48 2.848L117.712 1.936H123.184L122.92 3.76H127.48L127.168 6.04H113.488L113.8 3.76H118.336ZM126.184 9.688L125.872 11.968H113.104L113.416 9.688H126.184ZM126.16 6.736L125.824 8.992H113.968L114.304 6.736H126.16ZM120.88 16.528L121.12 14.92H117.04L116.8 16.528H120.88ZM136.574 3.112L137.03 2.416L136.694 1.984H142.262L141.518 3.112H149.462L148.094 12.712H131.198L132.422 4.048L131.822 3.112H136.574ZM133.766 18.784L134.51 13.456H138.566L138.134 16.48H143.654L144.71 15.52L144.254 18.784H133.766ZM144.998 13.648H148.646L148.814 18.784H145.166L144.998 13.648ZM132.326 18.784H128.75L130.382 13.648H133.958L132.326 18.784ZM139.598 13.216H143.174L143.318 15.976H139.718L139.598 13.216ZM144.134 9.928H136.046L135.95 10.72H144.038L144.134 9.928ZM136.622 5.848H144.71L144.83 5.08H136.742L136.622 5.848ZM136.286 8.248H144.374L144.47 7.528H136.382L136.286 8.248Z" fill="white"/>
</g>
<defs>
<linearGradient id="paint0_linear_2216_30113" x1="113.496" y1="31.5" x2="113.496" y2="3" gradientUnits="userSpaceOnUse">
<stop stop-color="white"/>
<stop offset="1" stop-color="#2F5499"/>
</linearGradient>
</defs>
</svg>
