<svg width="52" height="11" viewBox="0 0 52 11" fill="none" xmlns="http://www.w3.org/2000/svg">
<path id="&#229;&#165;&#150;&#229;&#138;&#177;&#232;&#174;&#190;&#231;&#189;&#174;" d="M3.28019 7.494H0.956188L1.13819 6.164H4.79219L5.39419 5.632H8.69819L8.09619 6.164H12.3102L12.1282 7.494H9.55219L12.0162 10.126H8.57219L6.40219 7.662L3.61619 10.126H0.312188L3.28019 7.494ZM10.1962 0.0459996L9.86019 0.577999H13.0522L12.8002 2.44L10.5602 5.352H5.98219L6.17819 4.022H6.75219L6.43019 2.692H8.60019L8.92219 4.022H9.09019L10.5182 1.908H9.04819L8.72619 2.426H6.24819L7.56419 0.395999L7.27019 0.0459996H10.1962ZM3.21019 4.666L1.26419 5.366L1.48819 3.812L3.43419 3.112L3.49019 2.636L1.69819 2.3L1.90819 0.83L3.70019 1.166L3.78419 0.606L3.39219 0.0459996H6.36019L5.61819 5.338H3.12619L3.21019 4.666ZM21.4371 3.21H20.9891L21.1711 1.866H21.7731L22.1091 0.508L21.7031 0.0599995H24.1391L23.6911 1.866H25.9591L24.9371 9.16C24.8998 9.43067 24.8018 9.65467 24.6431 9.832C24.4844 10 24.2698 10.084 23.9991 10.084H21.8571L23.0611 8.726L23.8311 3.21H23.3551L21.6611 10.098H19.7571L21.4371 3.21ZM18.0211 9.104L18.5391 5.436H18.0351L16.9571 10.126H15.2491L16.7751 3.518H16.4951L16.6771 2.23H20.6111L20.4291 3.518H18.4831L18.3011 4.302H20.3451L19.6591 9.16C19.6218 9.43067 19.4958 9.65933 19.2811 9.846C19.0758 10.0233 18.8378 10.112 18.5671 10.112H17.0971L18.0211 9.104ZM21.0311 0.312L20.8491 1.614H16.5651L14.9411 10.084H13.1631L14.8571 0.816L14.5911 0.312H21.0311ZM32.146 8.208L30.354 6.682L30.452 6.01H32.72L33.91 7.06L35.324 6.136L35.38 5.73H30.494L30.676 4.428H37.76L37.41 6.962L35.296 8.264L37.452 10.126H34.4L33.504 9.37L32.258 10.126H29.22L32.146 8.208ZM35.184 4.064L35.52 1.628H33.602L33.084 4.064H30.76L31.446 0.816L31.012 0.312H37.886L37.564 2.664H37.816L38.278 2.132L38.012 4.064H35.184ZM26.602 9.874L27.428 4.036H26.602L26.784 2.706H29.948L29.22 7.942L30.256 7.662L30.06 9.048L26.602 9.874ZM29.64 0.312L30.046 2.174H27.904L27.498 0.312H29.64ZM44.7029 2.972L44.8709 2.566H40.6569L40.9369 0.591999L40.6569 0.298H51.5489L51.2269 2.566H46.9709L46.8309 2.972H51.4509L51.3109 4.036H46.4529L46.3129 4.414H50.4569L49.8129 8.922H50.8909L50.7509 9.888H39.0749L39.2149 8.922H39.9849L40.6149 4.414H44.1429L44.2829 4.036H40.1529L40.2929 2.972H44.7029ZM42.8129 5.744H47.8529L47.8949 5.478H42.8549L42.8129 5.744ZM42.5189 7.858H47.5589L47.5869 7.606H42.5609L42.5189 7.858ZM42.3789 8.922H47.4049L47.4329 8.67H42.4069L42.3789 8.922ZM42.6729 6.794H47.6989L47.7409 6.556H42.7009L42.6729 6.794ZM48.2449 1.124L48.1609 1.754H48.9729L49.0569 1.124H48.2449ZM43.9469 1.754L44.0309 1.124H43.2469L43.1629 1.754H43.9469ZM45.6409 1.754H46.4249L46.5089 1.124H45.7249L45.6409 1.754Z" fill="white"/>
</svg>
