<svg width="229" height="24" viewBox="0 0 229 24" fill="none" xmlns="http://www.w3.org/2000/svg">
<g id="Group 2928">
<path id="REGISTRATION" d="M20.5733 5.472L19.5093 13.536C19.5093 13.7973 19.444 14.0493 19.3133 14.292C19.2013 14.516 19.0427 14.712 18.8373 14.88C18.632 15.048 18.3987 15.1787 18.1373 15.272C17.8947 15.3653 17.6333 15.412 17.3533 15.412H13.8533L19.5093 21.32H13.6013L8.22534 15.412L7.41334 21.32H2.03734L3.91334 6.536L3.10134 5.472H20.5733ZM9.03734 8.16L8.47734 12.724H14.4133L14.9453 8.16H9.03734ZM39.752 5.472L39.5 8.16H30.624L30.092 11.632H38.408L38.156 14.32H29.532L29 18.632H38.408L38.156 21.32H23.092L25.248 6.536L24.436 5.472H39.752ZM60.4633 10.036H55.0873L55.3393 8.16H48.8993L47.5553 18.632H53.9953L54.2753 15.412L52.6513 12.724H59.9033L58.8393 21.32H43.7753C43.5139 21.32 43.2713 21.2733 43.0473 21.18C42.8233 21.0867 42.6273 20.956 42.4593 20.788C42.3099 20.62 42.2073 20.424 42.1513 20.2C42.0953 19.9573 42.1046 19.7053 42.1793 19.444L44.0553 5.472H60.9953L60.4633 10.036ZM71.1781 5.472L68.7421 21.32H63.6461L65.5221 6.536L64.7101 5.472H71.1781ZM84.874 18.1L85.406 14.88H74.654L75.998 5.472H91.846L91.314 10.036H85.938L86.218 8.16H81.094L80.282 12.192H91.034L89.97 19.444C89.97 19.7053 89.9047 19.9573 89.774 20.2C89.662 20.424 89.5034 20.62 89.298 20.788C89.0927 20.956 88.8594 21.0867 88.598 21.18C88.3554 21.2733 88.094 21.32 87.814 21.32H73.842L74.374 17.008L75.186 18.1H84.874ZM98.4092 21.32L100.285 8.16H94.3772L94.6572 5.472H111.849L111.317 8.16H105.661L103.785 21.32H98.4092ZM132.901 5.472L131.837 13.536C131.837 13.7973 131.772 14.0493 131.641 14.292C131.529 14.516 131.371 14.712 131.165 14.88C130.96 15.048 130.727 15.1787 130.465 15.272C130.223 15.3653 129.961 15.412 129.681 15.412H126.181L131.837 21.32H125.929L120.553 15.412L119.741 21.32H114.365L116.241 6.536L115.429 5.472H132.901ZM121.365 8.16L120.805 12.724H126.741L127.273 8.16H121.365ZM151.772 5.472L153.9 21.32H149.084L148.524 17.008H141.804L139.928 21.32H135.364L141.552 6.256L140.74 5.472H151.772ZM145.584 8.16L142.896 14.32H148.272L147.46 8.16H145.584ZM160.397 21.32L162.273 8.16H156.365L156.645 5.472H173.837L173.305 8.16H167.649L165.773 21.32H160.397ZM184.026 5.472L181.59 21.32H176.494L178.37 6.536L177.558 5.472H184.026ZM203.686 5.472C203.947 5.472 204.19 5.51867 204.414 5.612C204.638 5.70533 204.824 5.836 204.974 6.004C205.142 6.172 205.254 6.368 205.31 6.592C205.366 6.816 205.356 7.068 205.282 7.348L203.406 21.32H188.342C188.08 21.32 187.838 21.2733 187.614 21.18C187.39 21.0867 187.194 20.956 187.026 20.788C186.876 20.62 186.774 20.424 186.718 20.2C186.662 19.9573 186.671 19.7053 186.746 19.444L188.622 5.472H203.686ZM193.466 8.16L192.122 18.632H198.31L199.906 8.16H193.466ZM215.386 5.472L221.014 15.412L222.358 5.472H226.95L224.794 21.32H219.418L214.042 11.632L212.698 21.32H207.854L210.01 6.536L208.918 5.472H215.386Z" fill="url(#paint0_linear_2260_31911)" fill-opacity="0.29"/>
<path id="&#230;&#138;&#165;&#229;&#144;&#141;&#229;&#143;&#130;&#232;&#181;&#155;" d="M78.5998 19.216L80.9758 2.392H92.3758L91.8958 5.776C91.8318 6.24 91.6238 6.632 91.2718 6.952C90.9198 7.256 90.5118 7.408 90.0478 7.408H87.1198L88.1518 6.52L88.4158 4.672H84.3118L83.7838 8.32H91.5358L91.0318 11.968L88.3198 15.208L90.4558 19.216H86.8078L86.0878 17.872L84.9838 19.216H78.5998ZM73.3678 11.032L73.9438 6.952H72.1198L72.4558 4.672H74.2798L74.5678 2.632L73.9678 1.936H78.7678L78.3838 4.672H80.2078L79.8718 6.952H78.0718L77.6158 10.096L79.4878 9.688L79.1518 12.208L77.2558 12.616L76.5598 17.632C76.4798 18.096 76.2638 18.48 75.9118 18.784C75.5598 19.072 75.1518 19.216 74.6878 19.216H70.3918L72.5518 16.984L73.0318 13.528L71.1357 13.936L71.4958 11.44L73.3678 11.032ZM82.4158 17.92L84.6958 15.232L83.2078 12.424L82.4158 17.92ZM83.4478 10.6L83.3998 11.056H86.1358L86.9278 12.568L88.1998 11.056L88.2718 10.6H83.4478ZM112.87 11.968L111.91 18.808H92.7579L93.7179 11.968H112.87ZM104.062 6.496L104.902 8.56H106.678L109.222 5.488L109.27 5.128H99.7179L98.5659 6.496H94.0059L97.3899 2.488L96.9099 1.936H102.406L101.638 2.848H114.142L113.662 6.28L109.822 10.84H93.8619L94.1979 8.56H100.342L99.5019 6.496H104.062ZM107.662 16.528L107.974 14.248H97.9419L97.6299 16.528H107.662ZM129.476 6.496L127.724 7.408H135.956L135.668 9.448H133.268L135.476 10.84H130.244L128.036 9.448H123.788L121.124 10.84H115.868L118.532 9.448H116.516L116.804 7.408H122.468L124.22 6.496H129.476ZM131.06 6.496L130.844 5.8L117.404 6.256L117.74 3.976L120.164 2.32L119.852 1.936H125.324L122.54 3.832L130.172 3.568L129.812 2.392H134.372L135.62 6.496H131.06ZM135.116 13.336L115.892 13.792L116.18 11.728L135.404 11.272L135.116 13.336ZM134.732 16.072L115.508 16.528L115.796 14.464L135.02 14.008L134.732 16.072ZM134.348 18.808L115.124 19.216L115.412 17.224L134.636 16.744L134.348 18.808ZM143.298 7.528L143.394 6.952H139.722L139.794 6.472H138.834L139.338 2.824H146.634L146.682 2.608L146.106 1.96H151.338L151.194 2.824H158.49L157.986 6.472H157.05L156.978 6.952H153.282L153.186 7.528H155.922L155.73 8.944H152.994L152.922 9.496H157.506L157.29 11.176H154.746L157.41 14.08H155.082L154.746 16.528H151.794L150.93 16.144L151.266 13.792H143.778L143.442 16.168L142.482 16.552H139.506L139.842 14.08H137.298L140.73 11.176H138.21L138.426 9.496H143.034L143.106 8.944H140.418L140.61 7.528H143.298ZM149.754 14.248L149.49 16.096L156.45 19.192H150.282L146.874 17.728L142.89 19.192H136.722L144.954 15.952L145.194 14.248H149.754ZM153.57 4.888L153.498 5.368H154.602L154.746 4.432H142.65L142.506 5.368H143.61L143.682 4.888H147.762L147.69 5.368H149.442L149.514 4.888H153.57ZM143.25 12.04H152.01L151.242 11.176H144.258L143.25 12.04ZM147.378 7.528H149.13L149.226 6.952H147.474L147.378 7.528ZM147.114 9.496H148.866L148.938 8.944H147.186L147.114 9.496Z" fill="white"/>
</g>
<defs>
<linearGradient id="paint0_linear_2260_31911" x1="121.989" y1="30.5" x2="121.989" y2="2" gradientUnits="userSpaceOnUse">
<stop stop-color="white"/>
<stop offset="1" stop-color="#2F5499"/>
</linearGradient>
</defs>
</svg>
