<svg width="52" height="11" viewBox="0 0 52 11" fill="none" xmlns="http://www.w3.org/2000/svg">
<path id="&#230;&#138;&#165;&#229;&#144;&#141;&#232;&#174;&#190;&#231;&#189;&#174;" d="M5.05819 10.126L6.44419 0.312H13.0942L12.8142 2.286C12.7769 2.55667 12.6555 2.78533 12.4502 2.972C12.2449 3.14933 12.0069 3.238 11.7362 3.238H10.0282L10.6302 2.72L10.7842 1.642H8.39019L8.08219 3.77H12.6042L12.3102 5.898L10.7282 7.788L11.9742 10.126H9.84619L9.42619 9.342L8.78219 10.126H5.05819ZM2.00619 5.352L2.34219 2.972H1.27819L1.47419 1.642H2.53819L2.70619 0.451999L2.35619 0.0459996H5.15619L4.93219 1.642H5.99619L5.80019 2.972H4.75019L4.48419 4.806L5.57619 4.568L5.38019 6.038L4.27419 6.276L3.86819 9.202C3.82152 9.47267 3.69552 9.69667 3.49019 9.874C3.28485 10.042 3.04685 10.126 2.77619 10.126H0.270188L1.53019 8.824L1.81019 6.808L0.704187 7.046L0.914188 5.59L2.00619 5.352ZM7.28419 9.37L8.61419 7.802L7.74619 6.164L7.28419 9.37ZM7.88619 5.1L7.85819 5.366H9.45419L9.91619 6.248L10.6582 5.366L10.7002 5.1H7.88619ZM25.0491 5.898L24.4891 9.888H13.3171L13.8771 5.898H25.0491ZM19.9111 2.706L20.4011 3.91H21.4371L22.9211 2.118L22.9491 1.908H17.3771L16.7051 2.706H14.0451L16.0191 0.368L15.7391 0.0459996H18.9451L18.4971 0.577999H25.7911L25.5111 2.58L23.2711 5.24H13.9611L14.1571 3.91H17.7411L17.2511 2.706H19.9111ZM22.0111 8.558L22.1931 7.228H16.3411L16.1591 8.558H22.0111ZM32.146 8.208L30.354 6.682L30.452 6.01H32.72L33.91 7.06L35.324 6.136L35.38 5.73H30.494L30.676 4.428H37.76L37.41 6.962L35.296 8.264L37.452 10.126H34.4L33.504 9.37L32.258 10.126H29.22L32.146 8.208ZM35.184 4.064L35.52 1.628H33.602L33.084 4.064H30.76L31.446 0.816L31.012 0.312H37.886L37.564 2.664H37.816L38.278 2.132L38.012 4.064H35.184ZM26.602 9.874L27.428 4.036H26.602L26.784 2.706H29.948L29.22 7.942L30.256 7.662L30.06 9.048L26.602 9.874ZM29.64 0.312L30.046 2.174H27.904L27.498 0.312H29.64ZM44.7029 2.972L44.8709 2.566H40.6569L40.9369 0.591999L40.6569 0.298H51.5489L51.2269 2.566H46.9709L46.8309 2.972H51.4509L51.3109 4.036H46.4529L46.3129 4.414H50.4569L49.8129 8.922H50.8909L50.7509 9.888H39.0749L39.2149 8.922H39.9849L40.6149 4.414H44.1429L44.2829 4.036H40.1529L40.2929 2.972H44.7029ZM42.8129 5.744H47.8529L47.8949 5.478H42.8549L42.8129 5.744ZM42.5189 7.858H47.5589L47.5869 7.606H42.5609L42.5189 7.858ZM42.3789 8.922H47.4049L47.4329 8.67H42.4069L42.3789 8.922ZM42.6729 6.794H47.6989L47.7409 6.556H42.7009L42.6729 6.794ZM48.2449 1.124L48.1609 1.754H48.9729L49.0569 1.124H48.2449ZM43.9469 1.754L44.0309 1.124H43.2469L43.1629 1.754H43.9469ZM45.6409 1.754H46.4249L46.5089 1.124H45.7249L45.6409 1.754Z" fill="white"/>
</svg>
