<svg width="52" height="11" viewBox="0 0 52 11" fill="none" xmlns="http://www.w3.org/2000/svg">
<path id="&#231;&#142;&#175;&#232;&#138;&#130;&#232;&#174;&#190;&#231;&#189;&#174;" d="M12.1982 8.278H10.3782L10.0422 5.548L9.39819 10.098H7.20019L7.81619 5.744L6.54219 8.278H4.49819L7.77419 1.684H6.01019L6.20619 0.298H13.2062L13.0102 1.684H9.84619L9.10419 3.154H11.5402L12.1982 8.278ZM1.95019 3.924L2.28619 1.572H1.40419L1.58619 0.298H5.63219L5.45019 1.572H4.48419L4.14819 3.924H5.00219L4.80619 5.338H3.95219L3.58819 7.914L4.49819 7.732L4.30219 9.09L0.172187 9.846L0.368188 8.516L1.32019 8.334L1.74019 5.338H0.844188L1.04019 3.924H1.95019ZM25.0351 4.036L24.4471 8.138C24.4098 8.40867 24.2838 8.63733 24.0691 8.824C23.8638 9.00133 23.6304 9.09 23.3691 9.09H20.5971L21.8431 7.76L22.1791 5.366H20.3171L19.6451 10.126H16.9851L17.6571 5.366H13.6671L13.8631 4.036H25.0351ZM16.2291 2.3H14.1011L14.2831 0.969999H16.4111L16.4671 0.577999L16.0191 0.0459996H18.9451L18.8191 0.969999H20.9331L20.9891 0.577999L20.5411 0.0459996H23.4671L23.3411 0.969999H25.4551L25.2731 2.3H23.1451L22.9631 3.644H20.5691L20.7511 2.3H18.6231L18.4411 3.644H16.0471L16.2291 2.3ZM32.146 8.208L30.354 6.682L30.452 6.01H32.72L33.91 7.06L35.324 6.136L35.38 5.73H30.494L30.676 4.428H37.76L37.41 6.962L35.296 8.264L37.452 10.126H34.4L33.504 9.37L32.258 10.126H29.22L32.146 8.208ZM35.184 4.064L35.52 1.628H33.602L33.084 4.064H30.76L31.446 0.816L31.012 0.312H37.886L37.564 2.664H37.816L38.278 2.132L38.012 4.064H35.184ZM26.602 9.874L27.428 4.036H26.602L26.784 2.706H29.948L29.22 7.942L30.256 7.662L30.06 9.048L26.602 9.874ZM29.64 0.312L30.046 2.174H27.904L27.498 0.312H29.64ZM44.7029 2.972L44.8709 2.566H40.6569L40.9369 0.591999L40.6569 0.298H51.5489L51.2269 2.566H46.9709L46.8309 2.972H51.4509L51.3109 4.036H46.4529L46.3129 4.414H50.4569L49.8129 8.922H50.8909L50.7509 9.888H39.0749L39.2149 8.922H39.9849L40.6149 4.414H44.1429L44.2829 4.036H40.1529L40.2929 2.972H44.7029ZM42.8129 5.744H47.8529L47.8949 5.478H42.8549L42.8129 5.744ZM42.5189 7.858H47.5589L47.5869 7.606H42.5609L42.5189 7.858ZM42.3789 8.922H47.4049L47.4329 8.67H42.4069L42.3789 8.922ZM42.6729 6.794H47.6989L47.7409 6.556H42.7009L42.6729 6.794ZM48.2449 1.124L48.1609 1.754H48.9729L49.0569 1.124H48.2449ZM43.9469 1.754L44.0309 1.124H43.2469L43.1629 1.754H43.9469ZM45.6409 1.754H46.4249L46.5089 1.124H45.7249L45.6409 1.754Z" fill="white"/>
</svg>
