<svg width="52" height="11" viewBox="0 0 52 11" fill="none" xmlns="http://www.w3.org/2000/svg">
<path id="&#231;&#155;&#180;&#229;&#135;&#187;&#232;&#174;&#190;&#231;&#189;&#174;" d="M5.98219 0.704L6.15019 0.424L5.81419 0.0459996H9.27219L8.89419 0.704H12.9122L12.7162 2.034H8.15219L7.84419 2.58H11.8482L11.0082 8.558H11.8062L11.6242 9.888H0.452188L0.634188 8.558H1.43219L2.27219 2.58H4.91819L5.22619 2.034H1.54419L1.74019 0.704H5.98219ZM4.68019 4.372H8.93619L9.00619 3.896H4.75019L4.68019 4.372ZM4.48419 5.772H8.74019L8.81019 5.296H4.55419L4.48419 5.772ZM4.28819 7.158H8.54419L8.60019 6.696H4.34419L4.28819 7.158ZM4.09219 8.558H8.34819L8.40419 8.096H4.14819L4.09219 8.558ZM18.8751 1.404L19.0011 0.55L18.5391 0.0599995H21.6891L21.4931 1.404H25.3431L25.1611 2.706H21.3111L21.1011 4.232H25.5111L25.3431 5.52H20.9191L20.4991 8.474H22.2631L22.5851 6.15H24.9651L24.4471 9.888H13.5971L14.1291 6.094H16.5091L16.1731 8.474H17.8811L18.3011 5.52H13.6671L13.8351 4.232H18.4831L18.6931 2.706H14.8431L15.0251 1.404H18.8751ZM32.146 8.208L30.354 6.682L30.452 6.01H32.72L33.91 7.06L35.324 6.136L35.38 5.73H30.494L30.676 4.428H37.76L37.41 6.962L35.296 8.264L37.452 10.126H34.4L33.504 9.37L32.258 10.126H29.22L32.146 8.208ZM35.184 4.064L35.52 1.628H33.602L33.084 4.064H30.76L31.446 0.816L31.012 0.312H37.886L37.564 2.664H37.816L38.278 2.132L38.012 4.064H35.184ZM26.602 9.874L27.428 4.036H26.602L26.784 2.706H29.948L29.22 7.942L30.256 7.662L30.06 9.048L26.602 9.874ZM29.64 0.312L30.046 2.174H27.904L27.498 0.312H29.64ZM44.7029 2.972L44.8709 2.566H40.6569L40.9369 0.591999L40.6569 0.298H51.5489L51.2269 2.566H46.9709L46.8309 2.972H51.4509L51.3109 4.036H46.4529L46.3129 4.414H50.4569L49.8129 8.922H50.8909L50.7509 9.888H39.0749L39.2149 8.922H39.9849L40.6149 4.414H44.1429L44.2829 4.036H40.1529L40.2929 2.972H44.7029ZM42.8129 5.744H47.8529L47.8949 5.478H42.8549L42.8129 5.744ZM42.5189 7.858H47.5589L47.5869 7.606H42.5609L42.5189 7.858ZM42.3789 8.922H47.4049L47.4329 8.67H42.4069L42.3789 8.922ZM42.6729 6.794H47.6989L47.7409 6.556H42.7009L42.6729 6.794ZM48.2449 1.124L48.1609 1.754H48.9729L49.0569 1.124H48.2449ZM43.9469 1.754L44.0309 1.124H43.2469L43.1629 1.754H43.9469ZM45.6409 1.754H46.4249L46.5089 1.124H45.7249L45.6409 1.754Z" fill="white"/>
</svg>
