<svg width="52" height="11" viewBox="0 0 52 11" fill="none" xmlns="http://www.w3.org/2000/svg">
<path id="&#232;&#167;&#132;&#229;&#136;&#153;&#232;&#174;&#190;&#231;&#189;&#174;" d="M2.17419 4.302L2.70619 2.566H1.48819L1.65619 1.376H3.07019L3.26619 0.773999L2.86019 0.312H5.66019L5.32419 1.376H6.58419L6.41619 2.566H4.96019L4.42819 4.302H6.16419L5.99619 5.492H5.32419L5.45019 10.126H3.33619L3.23819 6.906L2.25819 10.126H0.130187L1.53019 5.492H1.06819L1.23619 4.302H2.17419ZM6.92019 6.43H6.13619L6.99019 0.312H13.2342L12.3802 6.43H10.5182L11.2042 1.502H8.67019L8.54419 2.426L6.92019 6.43ZM10.8542 2.174L7.60619 10.126H5.74419L8.99219 2.174H10.8542ZM8.67019 10.126L9.51019 6.808H11.3722L10.9382 8.628H12.0862L12.6602 8.026L12.3942 10.126H8.67019ZM20.8071 0.325999L19.7571 7.76H18.6091L18.1471 6.808L18.8751 1.656H16.1171L15.3891 6.808L14.6331 7.76H13.4991L14.5491 0.325999H20.8071ZM25.7351 0.0739993L24.4611 9.174C24.4238 9.43533 24.2978 9.65467 24.0831 9.832C23.8684 10.0093 23.6304 10.098 23.3691 10.098H21.2551L22.4871 8.712L23.6351 0.494L23.2991 0.0739993H25.7351ZM18.2731 2.16L17.6151 6.794L19.5611 10.112H17.5031L16.6911 8.46L15.3331 10.112H13.3731L15.9211 6.808L16.5791 2.16H18.2731ZM23.0611 0.969999L22.1091 7.746H20.2751L21.2271 0.969999H23.0611ZM32.146 8.208L30.354 6.682L30.452 6.01H32.72L33.91 7.06L35.324 6.136L35.38 5.73H30.494L30.676 4.428H37.76L37.41 6.962L35.296 8.264L37.452 10.126H34.4L33.504 9.37L32.258 10.126H29.22L32.146 8.208ZM35.184 4.064L35.52 1.628H33.602L33.084 4.064H30.76L31.446 0.816L31.012 0.312H37.886L37.564 2.664H37.816L38.278 2.132L38.012 4.064H35.184ZM26.602 9.874L27.428 4.036H26.602L26.784 2.706H29.948L29.22 7.942L30.256 7.662L30.06 9.048L26.602 9.874ZM29.64 0.312L30.046 2.174H27.904L27.498 0.312H29.64ZM44.7029 2.972L44.8709 2.566H40.6569L40.9369 0.591999L40.6569 0.298H51.5489L51.2269 2.566H46.9709L46.8309 2.972H51.4509L51.3109 4.036H46.4529L46.3129 4.414H50.4569L49.8129 8.922H50.8909L50.7509 9.888H39.0749L39.2149 8.922H39.9849L40.6149 4.414H44.1429L44.2829 4.036H40.1529L40.2929 2.972H44.7029ZM42.8129 5.744H47.8529L47.8949 5.478H42.8549L42.8129 5.744ZM42.5189 7.858H47.5589L47.5869 7.606H42.5609L42.5189 7.858ZM42.3789 8.922H47.4049L47.4329 8.67H42.4069L42.3789 8.922ZM42.6729 6.794H47.6989L47.7409 6.556H42.7009L42.6729 6.794ZM48.2449 1.124L48.1609 1.754H48.9729L49.0569 1.124H48.2449ZM43.9469 1.754L44.0309 1.124H43.2469L43.1629 1.754H43.9469ZM45.6409 1.754H46.4249L46.5089 1.124H45.7249L45.6409 1.754Z" fill="white"/>
</svg>
