<svg width="343" height="22" viewBox="0 0 343 22" fill="none" xmlns="http://www.w3.org/2000/svg">
<g id="Group 2691">
<path id="Vector 898" d="M123 9L126.5 13.5H0" stroke="white" stroke-opacity="0.43" stroke-width="0.5"/>
<path id="Vector 899" d="M223.5 9L220 13.5H343" stroke="white" stroke-opacity="0.43" stroke-width="0.5"/>
<path id="&#232;&#181;&#155;&#228;&#186;&#139;&#231;&#142;&#175;&#232;&#138;&#130;" d="M148.543 9.352L148.607 8.968H146.159L146.207 8.648H145.567L145.903 6.216H150.767L150.799 6.072L150.415 5.64H153.903L153.807 6.216H158.671L158.335 8.648H157.711L157.663 8.968H155.199L155.135 9.352H156.959L156.831 10.296H155.007L154.959 10.664H158.015L157.871 11.784H156.175L157.951 13.72H156.399L156.175 15.352H154.207L153.631 15.096L153.855 13.528H148.863L148.639 15.112L147.999 15.368H146.015L146.239 13.72H144.543L146.831 11.784H145.151L145.295 10.664H148.367L148.415 10.296H146.623L146.751 9.352H148.543ZM152.847 13.832L152.671 15.064L157.311 17.128H153.199L150.927 16.152L148.271 17.128H144.159L149.647 14.968L149.807 13.832H152.847ZM155.391 7.592L155.343 7.912H156.079L156.175 7.288H148.111L148.015 7.912H148.751L148.799 7.592H151.519L151.471 7.912H152.639L152.687 7.592H155.391ZM148.511 12.36H154.351L153.839 11.784H149.183L148.511 12.36ZM151.263 9.352H152.431L152.495 8.968H151.327L151.263 9.352ZM151.087 10.664H152.255L152.303 10.296H151.135L151.087 10.664ZM164.909 7.912L164.973 7.448H160.125L160.269 6.392H165.117L165.149 6.232L164.637 5.624H168.285L168.173 6.392H173.037L172.893 7.448H168.029L167.965 7.912H172.221L171.837 10.648H167.581L167.517 11.096H171.917L171.693 12.616H172.157L172.013 13.688H171.533L171.325 15.208H166.925L166.813 16.088C166.76 16.3973 166.616 16.6533 166.381 16.856C166.147 17.048 165.875 17.144 165.565 17.144H162.397L163.837 15.656L163.901 15.208H159.485L159.645 14.136H164.045L164.109 13.688H159.245L159.389 12.616H164.269L164.333 12.168H159.917L160.077 11.096H164.477L164.541 10.648H160.285L160.669 7.912H164.909ZM164.685 9.576L164.765 8.968H163.245L163.165 9.576H164.685ZM167.821 8.968L167.725 9.576H169.245L169.325 8.968H167.821ZM168.765 14.136L168.829 13.688H167.149L167.085 14.136H168.765ZM167.357 12.168L167.293 12.616H168.973L169.037 12.168H167.357ZM187.164 15.032H185.084L184.7 11.912L183.964 17.112H181.452L182.156 12.136L180.7 15.032H178.364L182.108 7.496H180.092L180.316 5.912H188.316L188.092 7.496H184.476L183.628 9.176H186.412L187.164 15.032ZM175.452 10.056L175.836 7.368H174.828L175.036 5.912H179.66L179.452 7.368H178.348L177.964 10.056H178.94L178.716 11.672H177.74L177.324 14.616L178.364 14.408L178.14 15.96L173.42 16.824L173.644 15.304L174.732 15.096L175.212 11.672H174.188L174.412 10.056H175.452ZM201.835 10.184L201.163 14.872C201.12 15.1813 200.976 15.4427 200.731 15.656C200.496 15.8587 200.229 15.96 199.931 15.96H196.763L198.187 14.44L198.571 11.704H196.443L195.675 17.144H192.635L193.403 11.704H188.843L189.067 10.184H201.835ZM191.771 8.2H189.339L189.547 6.68H191.979L192.043 6.232L191.531 5.624H194.875L194.731 6.68H197.147L197.211 6.232L196.699 5.624H200.043L199.899 6.68H202.315L202.107 8.2H199.675L199.467 9.736H196.731L196.939 8.2H194.507L194.299 9.736H191.563L191.771 8.2Z" fill="white"/>
</g>
</svg>
